<svg width="264" height="119" viewBox="0 0 264 119" fill="none" xmlns="http://www.w3.org/2000/svg">
<path d="M162.89 57.0992L139.296 97.9656L118.72 86.0861L127.572 70.7522L130.67 82.8813C130.741 83.1369 130.893 83.3622 131.102 83.5226C131.312 83.6829 131.567 83.7696 131.83 83.7697C132.093 83.7697 132.349 83.683 132.559 83.5226C132.768 83.3621 132.92 83.1369 132.991 82.8813L136.804 67.9576C137.019 67.1158 137.453 66.3472 138.063 65.7325C138.672 65.1178 139.433 64.679 140.267 64.4619L155.053 60.6161C155.308 60.5453 155.532 60.3923 155.692 60.1805C155.852 59.9688 155.938 59.7099 155.938 59.4438C155.938 59.1776 155.852 58.9184 155.692 58.7066C155.532 58.4949 155.308 58.3419 155.053 58.2711L140.267 54.4253C139.433 54.2081 138.672 53.7694 138.063 53.1547C137.992 53.0837 137.924 53.0106 137.859 52.9357L142.314 45.2193L162.89 57.0992Z" fill="#25B2F9"/>
<path d="M144.179 31.3262L135.593 46.1961L132.992 36.0067C132.921 35.7511 132.769 35.5258 132.56 35.3654C132.35 35.205 132.094 35.1183 131.831 35.1183C131.568 35.1183 131.313 35.2051 131.103 35.3654C130.894 35.5258 130.742 35.7511 130.671 36.0067L126.858 50.9303C126.642 51.7717 126.207 52.5395 125.598 53.1538C124.989 53.7681 124.228 54.2067 123.394 54.4236L108.608 58.2744C108.356 58.3466 108.134 58.5 107.976 58.7111C107.818 58.9223 107.732 59.1799 107.732 59.4446C107.732 59.7092 107.818 59.9665 107.976 60.1776C108.134 60.3887 108.356 60.5421 108.608 60.6144L123.394 64.4626C123.864 64.5848 124.31 64.7772 124.719 65.0316L120.585 72.1926L101.225 61.0152L124.819 20.1488L144.179 31.3262Z" fill="#7857F2"/>
<path d="M78.2635 0.00937856C84.2019 0.0157654 89.687 3.1853 92.6581 8.32695L119.831 55.351L108.609 58.2741C108.356 58.3464 108.134 58.4998 107.976 58.7109C107.818 58.922 107.733 59.1797 107.733 59.4443C107.733 59.709 107.818 59.9663 107.976 60.1774C108.134 60.3885 108.356 60.5419 108.609 60.6141L123.395 64.4624C124.229 64.6796 124.99 65.1187 125.599 65.7334C126.208 66.3482 126.643 67.1164 126.858 67.9582L130.669 82.8818C130.74 83.1374 130.892 83.3627 131.101 83.5231C131.311 83.6835 131.566 83.7702 131.829 83.7702C132.092 83.7702 132.348 83.6835 132.558 83.5231C132.767 83.3627 132.919 83.1374 132.99 82.8818L133.833 79.5815L141.876 93.4993L136.014 103.654C132.106 110.425 122.333 110.426 118.424 103.655L81.199 39.1787C79.8961 36.922 76.6388 36.9221 75.3359 39.1787L32.2466 113.812C30.4326 116.954 27.0803 118.889 23.4522 118.889H0L63.83 8.33232C66.8068 3.17658 72.3102 0.0029779 78.2635 0.00937856Z" fill="#25B2F9"/>
<path d="M263.669 -0.00012207L199.839 110.557C196.862 115.713 191.359 118.886 185.406 118.88C179.467 118.873 173.982 115.704 171.011 110.562L143.836 63.5343L155.052 60.6175C155.306 60.5467 155.53 60.3937 155.69 60.1819C155.85 59.9702 155.936 59.7113 155.936 59.4452C155.936 59.179 155.85 58.9198 155.69 58.708C155.53 58.4962 155.306 58.3433 155.052 58.2725L140.265 54.4267C139.431 54.2095 138.67 53.7708 138.061 53.1561C137.452 52.5413 137.017 51.7727 136.802 50.9309L132.991 36.0073C132.921 35.7517 132.769 35.5264 132.559 35.366C132.35 35.2056 132.094 35.1189 131.831 35.1189C131.568 35.1189 131.312 35.2057 131.103 35.366C130.893 35.5264 130.741 35.7517 130.67 36.0073L129.83 39.2965L121.793 25.3885L127.655 15.2338C131.564 8.46342 141.336 8.46317 145.244 15.2334L182.47 79.7104C183.773 81.9671 187.03 81.967 188.333 79.7104L231.423 5.07744C233.237 1.93549 236.589 -0.000121753 240.217 -0.00012207H263.669Z" fill="#7857F2"/>
</svg>
