<svg width="806" height="123" viewBox="0 0 806 123" fill="none" xmlns="http://www.w3.org/2000/svg">
<path d="M331.244 104.688C322.97 104.688 316.231 104.285 311.027 103.481C305.822 102.81 301.819 101.536 299.017 99.6588C296.214 97.7814 294.279 95.2335 293.212 92.0152C292.278 88.7968 291.811 84.7738 291.811 79.9462C291.811 73.1071 292.545 67.9443 294.012 64.4577C295.614 60.837 298.283 58.3561 302.019 57.0152C305.889 55.6742 311.027 55.0037 317.432 55.0037C320.769 55.0037 324.438 55.0707 328.442 55.2048C332.579 55.3389 336.515 55.5401 340.252 55.8083C344.122 55.9424 347.458 56.1435 350.26 56.4117C353.196 56.6799 355.131 57.0152 356.065 57.4174C356.065 51.7853 355.598 47.36 354.664 44.1416C353.73 40.9232 352.195 38.5094 350.06 36.9002C348.058 35.291 345.523 34.2182 342.454 33.6818C339.384 33.1454 335.781 32.8772 331.644 32.8772C327.107 32.8772 322.57 33.0113 318.033 33.2795C313.629 33.5477 309.426 34.0171 305.422 34.6876C301.552 35.3581 298.349 36.2297 295.814 37.3025V33.4807C295.814 30.3964 296.615 28.1837 298.216 26.8427C299.951 25.5017 302.019 24.6301 304.421 24.2278C307.09 23.5573 311.027 23.0209 316.231 22.6186C321.436 22.2163 326.974 22.0822 332.845 22.2163C340.319 22.2163 346.657 22.6186 351.862 23.4232C357.2 24.0937 361.47 25.5688 364.673 27.8485C368.009 30.1282 370.411 33.5477 371.879 38.1071C373.48 42.6665 374.281 48.768 374.281 56.4117V97.4462C373.08 99.9941 369.01 101.871 362.07 103.078C355.131 104.151 344.856 104.688 331.244 104.688ZM331.244 96.2393C336.582 96.2393 340.919 96.1052 344.255 95.837C347.725 95.4347 350.394 94.9654 352.262 94.429C354.13 93.7585 355.398 92.9538 356.065 92.0152V64.2565C354.864 63.8542 352.729 63.519 349.66 63.2508C346.591 62.8485 343.388 62.5132 340.052 62.245C336.715 61.9768 333.913 61.8427 331.644 61.8427C326.707 61.8427 322.704 62.178 319.634 62.8485C316.565 63.519 314.363 65.0611 313.029 67.4749C311.694 69.8887 311.027 73.6435 311.027 78.7393C311.027 82.8964 311.494 86.2489 312.428 88.7968C313.362 91.3447 315.23 93.2221 318.033 94.429C320.969 95.6359 325.372 96.2393 331.244 96.2393Z" fill="#002F47"/>
<path d="M421.325 103.481C419.057 103.481 417.122 103.212 415.521 102.676C413.919 102.14 412.518 101.134 411.317 99.6588C410.249 98.0496 409.182 95.9041 408.114 93.2221L383.693 23.2221H403.11L419.724 75.9232C420.658 79.0075 421.726 81.086 422.927 82.1588C424.128 83.2316 426.396 83.768 429.733 83.768C432.535 74.5152 435.204 65.2623 437.739 56.0094C440.408 46.7565 443.144 37.5707 445.946 28.4519C446.347 26.8427 447.014 25.5688 447.948 24.6301C449.016 23.6914 450.617 23.2221 452.752 23.2221H459.958L433.136 103.481H421.325Z" fill="#002F47"/>
<path d="M509.325 104.688C501.052 104.688 494.313 104.285 489.108 103.481C483.904 102.81 479.9 101.536 477.098 99.6588C474.296 97.7814 472.361 95.2335 471.293 92.0152C470.359 88.7968 469.892 84.7738 469.892 79.9462C469.892 73.1071 470.626 67.9443 472.094 64.4577C473.695 60.837 476.364 58.3561 480.101 57.0152C483.97 55.6742 489.108 55.0037 495.514 55.0037C498.85 55.0037 502.52 55.0707 506.523 55.2048C510.66 55.3389 514.597 55.5401 518.333 55.8083C522.203 55.9424 525.539 56.1435 528.342 56.4117C531.277 56.6799 533.212 57.0152 534.146 57.4174C534.146 51.7853 533.679 47.36 532.745 44.1416C531.811 40.9232 530.277 38.5094 528.141 36.9002C526.14 35.291 523.604 34.2182 520.535 33.6818C517.466 33.1454 513.863 32.8772 509.726 32.8772C505.189 32.8772 500.651 33.0113 496.114 33.2795C491.71 33.5477 487.507 34.0171 483.503 34.6876C479.633 35.3581 476.431 36.2297 473.895 37.3025V33.4807C473.895 30.3964 474.696 28.1837 476.297 26.8427C478.032 25.5017 480.101 24.6301 482.503 24.2278C485.171 23.5573 489.108 23.0209 494.313 22.6186C499.517 22.2163 505.055 22.0822 510.927 22.2163C518.4 22.2163 524.738 22.6186 529.943 23.4232C535.281 24.0937 539.551 25.5688 542.754 27.8485C546.09 30.1282 548.492 33.5477 549.96 38.1071C551.561 42.6665 552.362 48.768 552.362 56.4117V97.4462C551.161 99.9941 547.091 101.871 540.152 103.078C533.212 104.151 522.937 104.688 509.325 104.688ZM509.325 96.2393C514.663 96.2393 519 96.1052 522.336 95.837C525.806 95.4347 528.475 94.9654 530.343 94.429C532.212 93.7585 533.479 92.9538 534.146 92.0152V64.2565C532.945 63.8542 530.81 63.519 527.741 63.2508C524.672 62.8485 521.469 62.5132 518.133 62.245C514.797 61.9768 511.994 61.8427 509.726 61.8427C504.788 61.8427 500.785 62.178 497.715 62.8485C494.646 63.519 492.444 65.0611 491.11 67.4749C489.775 69.8887 489.108 73.6435 489.108 78.7393C489.108 82.8964 489.575 86.2489 490.509 88.7968C491.443 91.3447 493.312 93.2221 496.114 94.429C499.05 95.6359 503.454 96.2393 509.325 96.2393Z" fill="#002F47"/>
<path d="M578.389 103.481C574.652 103.481 572.784 101.603 572.784 97.8485V28.6531C576.787 27.0439 582.192 25.6358 588.998 24.4289C595.804 23.0879 603.544 22.4175 612.218 22.4175C620.758 22.4175 627.564 22.9538 632.635 24.0266C637.839 25.0994 641.776 26.8427 644.445 29.2565C647.114 31.5362 648.849 34.5535 649.649 38.3083C650.584 42.063 651.051 46.6895 651.051 52.1876V95.837C651.051 97.7144 650.851 99.2565 650.45 100.463C650.183 101.67 649.449 102.475 648.248 102.877C647.181 103.28 645.513 103.481 643.244 103.481H632.235V48.1646C632.235 42.9347 630.633 39.1799 627.431 36.9002C624.228 34.6205 619.157 33.4807 612.218 33.4807C610.082 33.4807 607.68 33.6818 605.012 34.0841C602.343 34.3523 599.807 34.8217 597.405 35.4922C595.003 36.1627 593.068 37.0343 591.6 38.1071V103.481H578.389Z" fill="#002F47"/>
<path d="M708.323 104.688C700.049 104.688 693.31 104.285 688.106 103.481C682.901 102.81 678.898 101.536 676.095 99.6588C673.293 97.7814 671.358 95.2335 670.291 92.0152C669.356 88.7968 668.889 84.7738 668.889 79.9462C668.889 73.1071 669.623 67.9443 671.091 64.4577C672.693 60.837 675.361 58.3561 679.098 57.0152C682.968 55.6742 688.106 55.0037 694.511 55.0037C697.847 55.0037 701.517 55.0707 705.52 55.2048C709.657 55.3389 713.594 55.5401 717.331 55.8083C721.201 55.9424 724.537 56.1435 727.339 56.4117C730.275 56.6799 732.21 57.0152 733.144 57.4174C733.144 51.7853 732.677 47.36 731.743 44.1416C730.809 40.9232 729.274 38.5094 727.139 36.9002C725.137 35.291 722.602 34.2182 719.532 33.6818C716.463 33.1454 712.86 32.8772 708.723 32.8772C704.186 32.8772 699.649 33.0113 695.112 33.2795C690.708 33.5477 686.504 34.0171 682.501 34.6876C678.631 35.3581 675.428 36.2297 672.893 37.3025V33.4807C672.893 30.3964 673.693 28.1837 675.295 26.8427C677.03 25.5017 679.098 24.6301 681.5 24.2278C684.169 23.5573 688.106 23.0209 693.31 22.6186C698.515 22.2163 704.053 22.0822 709.924 22.2163C717.397 22.2163 723.736 22.6186 728.94 23.4232C734.278 24.0937 738.549 25.5688 741.751 27.8485C745.087 30.1282 747.49 33.5477 748.957 38.1071C750.559 42.6665 751.36 48.768 751.36 56.4117V97.4462C750.159 99.9941 746.088 101.871 739.149 103.078C732.21 104.151 721.934 104.688 708.323 104.688ZM708.323 96.2393C713.661 96.2393 717.998 96.1052 721.334 95.837C724.804 95.4347 727.473 94.9654 729.341 94.429C731.209 93.7585 732.477 92.9538 733.144 92.0152V64.2565C731.943 63.8542 729.808 63.519 726.739 63.2508C723.669 62.8485 720.467 62.5132 717.13 62.245C713.794 61.9768 710.992 61.8427 708.723 61.8427C703.786 61.8427 699.782 62.178 696.713 62.8485C693.644 63.519 691.442 65.0611 690.107 67.4749C688.773 69.8887 688.106 73.6435 688.106 78.7393C688.106 82.8964 688.573 86.2489 689.507 88.7968C690.441 91.3447 692.309 93.2221 695.112 94.429C698.047 95.6359 702.451 96.2393 708.323 96.2393Z" fill="#002F47"/>
<path d="M789.997 104.285C782.924 104.285 778.12 102.609 775.585 99.2565C773.049 95.7699 771.782 90.6071 771.782 83.768L771.982 23.2221H790.598V82.7623C790.598 87.8581 791.198 91.3447 792.399 93.2221C793.734 95.0995 795.935 96.0381 799.005 96.0381C800.206 96.0381 801.54 95.904 803.008 95.6358C804.476 95.3676 805.41 95.1665 805.811 95.0324V102.676C805.277 102.81 804.409 103.011 803.208 103.28C802.007 103.548 800.339 103.749 798.204 103.883C796.069 104.151 793.333 104.285 789.997 104.285Z" fill="#002F47"/>
<path d="M774.583 11.2644C776.184 12.069 778.519 12.4713 781.589 12.4713C784.658 12.4713 786.86 12.069 788.194 11.2644C789.662 10.3257 790.396 8.64943 790.396 6.23564C790.396 3.82184 789.662 2.21265 788.194 1.40805C786.86 0.469351 784.658 0 781.589 0C778.386 0 776.051 0.469351 774.583 1.40805C773.115 2.21265 772.381 3.82184 772.381 6.23564C772.381 8.64943 773.115 10.3257 774.583 11.2644Z" fill="#25B2F9"/>
<path d="M163.078 61.0809L139.484 101.947L118.907 90.0679L127.76 74.7339L130.857 86.863C130.928 87.1186 131.08 87.3439 131.29 87.5043C131.499 87.6646 131.755 87.7514 132.018 87.7514C132.281 87.7514 132.537 87.6647 132.746 87.5043C132.956 87.3439 133.107 87.1186 133.178 86.863L136.991 71.9394C137.206 71.0975 137.641 70.329 138.25 69.7142C138.859 69.0995 139.62 68.6607 140.455 68.4436L155.241 64.5978C155.495 64.527 155.72 64.374 155.879 64.1623C156.039 63.9505 156.126 63.6917 156.126 63.4255C156.126 63.1593 156.039 62.9001 155.879 62.6883C155.72 62.4766 155.495 62.3236 155.241 62.2528L140.455 58.407C139.62 58.1899 138.859 57.7511 138.25 57.1364C138.18 57.0655 138.112 56.9923 138.046 56.9174L142.502 49.201L163.078 61.0809Z" fill="#25B2F9"/>
<path d="M144.366 35.3079L135.781 50.1778L133.179 39.9884C133.109 39.7328 132.957 39.5075 132.747 39.3471C132.538 39.1867 132.282 39.1 132.019 39.1C131.756 39.1 131.5 39.1868 131.291 39.3471C131.081 39.5075 130.929 39.7328 130.858 39.9884L127.045 54.912C126.83 55.7534 126.395 56.5212 125.786 57.1355C125.177 57.7498 124.416 58.1883 123.582 58.4053L108.795 62.256C108.543 62.3283 108.321 62.4817 108.163 62.6928C108.005 62.904 107.919 63.1616 107.919 63.4263C107.919 63.6909 108.005 63.9482 108.163 64.1593C108.321 64.3704 108.543 64.5238 108.795 64.5961L123.582 68.4443C124.051 68.5665 124.497 68.7589 124.906 69.0133L120.772 76.1743L101.412 64.9969L125.006 24.1305L144.366 35.3079Z" fill="#7857F2"/>
<path d="M78.451 3.99104C84.3894 3.99742 89.8745 7.16696 92.8456 12.3086L120.019 59.3327L108.796 62.2558C108.544 62.328 108.322 62.4814 108.164 62.6925C108.006 62.9037 107.92 63.1613 107.92 63.426C107.92 63.6906 108.006 63.9479 108.164 64.159C108.322 64.3702 108.544 64.5235 108.796 64.5958L123.582 68.4441C124.416 68.6612 125.178 69.1004 125.787 69.7151C126.396 70.3299 126.831 71.098 127.046 71.9398L130.857 86.8635C130.927 87.1191 131.079 87.3444 131.289 87.5048C131.498 87.6651 131.754 87.7519 132.017 87.7519C132.28 87.7519 132.536 87.6652 132.745 87.5048C132.955 87.3444 133.107 87.1191 133.178 86.8635L134.021 83.5631L142.063 97.481L136.201 107.636C132.293 114.407 122.521 114.407 118.612 107.637L81.3865 43.1604C80.0836 40.9037 76.8263 40.9038 75.5234 43.1604L32.4341 117.793C30.6201 120.935 27.2678 122.871 23.6397 122.871H0.1875L64.0175 12.314C66.9943 7.15824 72.4977 3.98464 78.451 3.99104Z" fill="#25B2F9"/>
<path d="M263.857 3.98157L200.027 114.538C197.05 119.694 191.547 122.868 185.593 122.861C179.655 122.855 174.17 119.685 171.199 114.544L144.023 67.516L155.239 64.5991C155.493 64.5284 155.718 64.3754 155.877 64.1636C156.037 63.9519 156.124 63.693 156.124 63.4269C156.124 63.1606 156.037 62.9015 155.877 62.6897C155.718 62.4779 155.493 62.3249 155.239 62.2542L140.453 58.4084C139.619 58.1912 138.857 57.7525 138.248 57.1378C137.639 56.523 137.204 55.7544 136.989 54.9126L133.179 39.989C133.108 39.7334 132.956 39.5081 132.747 39.3477C132.537 39.1873 132.281 39.1006 132.018 39.1006C131.755 39.1006 131.5 39.1874 131.29 39.3477C131.081 39.5081 130.929 39.7334 130.858 39.989L130.017 43.2782L121.98 29.3702L127.843 19.2155C131.751 12.4451 141.523 12.4449 145.432 19.2151L182.658 83.6921C183.961 85.9488 187.218 85.9487 188.521 83.6921L231.61 9.05913C233.424 5.91718 236.776 3.98157 240.404 3.98157H263.857Z" fill="#7857F2"/>
</svg>
