<svg width="42" height="42" viewBox="0 0 42 42" fill="none" xmlns="http://www.w3.org/2000/svg">
<path d="M7.87501 16.6237C7.87522 14.4346 8.42301 12.2802 9.46852 10.3568C10.514 8.43341 12.024 6.80208 13.861 5.61134C15.6981 4.4206 17.8037 3.70827 19.9864 3.5392C22.169 3.37014 24.3593 3.7497 26.3578 4.64335C28.3563 5.537 30.0995 6.91634 31.4287 8.65578C32.7579 10.3952 33.6309 12.4395 33.9683 14.6026C34.3056 16.7656 34.0965 18.9787 33.3601 21.0403C32.6236 23.1018 31.3832 24.9465 29.7518 26.4062C27.7918 28.1615 26.8118 29.04 26.5458 29.3637C25.6935 30.4155 25.6568 30.5012 25.4433 31.8365C25.375 32.2512 25.375 32.8742 25.375 34.1237C25.375 35.76 25.375 36.5772 25.0233 37.1862C24.7929 37.5853 24.4615 37.9166 24.0625 38.147C23.4535 38.4987 22.6363 38.4987 21 38.4987C19.3638 38.4987 18.5465 38.4987 17.9375 38.147C17.5385 37.9166 17.2071 37.5853 16.9768 37.1862C16.625 36.5772 16.625 35.76 16.625 34.1237C16.625 32.876 16.625 32.2512 16.5585 31.8365C16.3433 30.5012 16.3065 30.4155 15.4543 29.3655C15.19 29.04 14.2083 28.1615 12.2483 26.4045C10.8707 25.1749 9.76886 23.6677 9.01514 21.982C8.26142 20.2963 7.87287 18.4703 7.87501 16.6237Z" stroke="#321698" stroke-width="2.5"/>
<path opacity="0.5" d="M25.375 34.125H16.625" stroke="#321698" stroke-width="2.5"/>
<path opacity="0.5" d="M22.3753 14.875L18.625 20.125H23.875L20.1248 25.375" stroke="#321698" stroke-width="2.5" stroke-linecap="round" stroke-linejoin="round"/>
</svg>
