<svg width="42" height="42" viewBox="0 0 42 42" fill="none" xmlns="http://www.w3.org/2000/svg">
<path opacity="0.5" d="M3.5 21C3.5 12.7505 3.5 8.62575 6.062 6.062C8.6275 3.5 12.7505 3.5 21 3.5C29.2495 3.5 33.3742 3.5 35.9362 6.062C38.5 8.6275 38.5 12.7505 38.5 21C38.5 29.2495 38.5 33.3742 35.9362 35.9362C33.376 38.5 29.2495 38.5 21 38.5C12.7505 38.5 8.62575 38.5 6.062 35.9362C3.5 33.376 3.5 29.2495 3.5 21Z" stroke="#321698" stroke-width="2.5"/>
<path d="M10.5 27.65L12.5003 29.75L17.5 24.5M10.5 15.4L12.5003 17.5L17.5 12.25" stroke="#321698" stroke-width="2.5" stroke-linecap="round" stroke-linejoin="round"/>
<path d="M22.75 15.75H31.5M22.75 28H31.5" stroke="#321698" stroke-width="2.5" stroke-linecap="round"/>
</svg>
