<svg width="42" height="42" viewBox="0 0 42 42" fill="none" xmlns="http://www.w3.org/2000/svg">
<path d="M3.5 17.5C3.5 12.551 3.5 10.0748 5.03825 8.53825C6.57475 7 9.051 7 14 7H22.75C27.699 7 30.1753 7 31.7118 8.53825C33.25 10.0748 33.25 12.551 33.25 17.5C33.25 22.449 33.25 24.9253 31.7118 26.4618C30.1753 28 27.699 28 22.75 28H14C9.051 28 6.57475 28 5.03825 26.4618C3.5 24.9253 3.5 22.449 3.5 17.5Z" stroke="#321698" stroke-width="2.5"/>
<path opacity="0.5" d="M33.2498 12.3828C34.9561 12.5508 36.1058 12.9306 36.9633 13.7881C38.4998 15.3246 38.4998 17.8008 38.4998 22.7498C38.4998 27.6988 38.4998 30.1751 36.9633 31.7116C35.4233 33.2516 32.9506 33.2516 27.9998 33.2516H19.2498C14.3008 33.2516 11.8263 33.2516 10.2881 31.7116C9.43056 30.8541 9.05081 29.7061 8.88281 27.9998" stroke="#321698" stroke-width="2.5"/>
<path d="M22.75 17.5C22.75 18.6603 22.2891 19.7731 21.4686 20.5936C20.6481 21.4141 19.5353 21.875 18.375 21.875C17.2147 21.875 16.1019 21.4141 15.2814 20.5936C14.4609 19.7731 14 18.6603 14 17.5C14 16.3397 14.4609 15.2269 15.2814 14.4064C16.1019 13.5859 17.2147 13.125 18.375 13.125C19.5353 13.125 20.6481 13.5859 21.4686 14.4064C22.2891 15.2269 22.75 16.3397 22.75 17.5Z" stroke="#321698" stroke-width="2.5"/>
<path opacity="0.5" d="M28 21V14M8.75 21V14" stroke="#321698" stroke-width="2.5" stroke-linecap="round"/>
</svg>
