<svg width="42" height="42" viewBox="0 0 42 42" fill="none" xmlns="http://www.w3.org/2000/svg">
<path opacity="0.5" d="M22.3125 3.5C22.3125 3.1519 22.1742 2.81806 21.9281 2.57192C21.6819 2.32578 21.3481 2.1875 21 2.1875C20.6519 2.1875 20.3181 2.32578 20.0719 2.57192C19.8258 2.81806 19.6875 3.1519 19.6875 3.5H22.3125ZM19.6875 3.5V5.25H22.3125V3.5H19.6875ZM22.3125 19.25C22.3125 18.9019 22.1742 18.5681 21.9281 18.3219C21.6819 18.0758 21.3481 17.9375 21 17.9375C20.6519 17.9375 20.3181 18.0758 20.0719 18.3219C19.8258 18.5681 19.6875 18.9019 19.6875 19.25H22.3125ZM19.6875 19.25V21H22.3125V19.25H19.6875Z" fill="#321698"/>
<path d="M11.7318 6.125H30.6248C33.0818 6.125 34.3121 6.125 35.1941 6.71475C35.5764 6.97017 35.9047 7.29842 36.1601 7.68075C36.7498 8.56275 36.7498 9.793 36.7498 12.25C36.7498 14.707 36.7498 15.9373 36.1601 16.8193C35.9047 17.2016 35.5764 17.5298 35.1941 17.7853C34.3121 18.375 33.0818 18.375 30.6248 18.375H11.7318C10.5803 18.375 10.0063 18.375 9.47783 18.2035C9.24461 18.1281 9.01996 18.0284 8.80758 17.906C8.32808 17.626 7.94308 17.199 7.17483 16.3415C5.68733 14.6843 4.94183 13.8565 4.76158 12.887C4.68364 12.4659 4.68364 12.0341 4.76158 11.613C4.94183 10.6453 5.68558 9.81575 7.17483 8.1585C7.94483 7.301 8.32808 6.874 8.80758 6.59575C9.01996 6.47339 9.24461 6.37367 9.47783 6.29825C10.0063 6.125 10.5803 6.125 11.7318 6.125ZM30.2678 21.875H11.3748C8.91783 21.875 7.68758 21.875 6.80558 22.4647C6.42325 22.7202 6.095 23.0484 5.83958 23.4307C5.24983 24.3127 5.24983 25.543 5.24983 28C5.24983 30.457 5.24983 31.6873 5.83958 32.5693C6.095 32.9516 6.42325 33.2798 6.80558 33.5353C7.68758 34.125 8.91783 34.125 11.3748 34.125H30.2678C31.4193 34.125 31.9933 34.125 32.5218 33.9535C32.7552 33.8765 32.9786 33.7773 33.1921 33.656C33.6716 33.376 34.0566 32.949 34.8248 32.0915C36.3123 30.4342 37.0578 29.6065 37.2381 28.637C37.316 28.2159 37.316 27.7841 37.2381 27.363C37.0578 26.3952 36.3141 25.5657 34.8248 23.9085C34.0548 23.051 33.6716 22.624 33.1921 22.3458C32.9797 22.2234 32.755 22.1237 32.5218 22.0482C31.9933 21.875 31.4193 21.875 30.2678 21.875Z" stroke="#321698" stroke-width="2.5"/>
<path opacity="0.5" d="M22.3125 35C22.3125 34.6519 22.1742 34.3181 21.9281 34.0719C21.6819 33.8258 21.3481 33.6875 21 33.6875C20.6519 33.6875 20.3181 33.8258 20.0719 34.0719C19.8258 34.3181 19.6875 34.6519 19.6875 35H22.3125ZM24.5 39.8125C24.8481 39.8125 25.1819 39.6742 25.4281 39.4281C25.6742 39.1819 25.8125 38.8481 25.8125 38.5C25.8125 38.1519 25.6742 37.8181 25.4281 37.5719C25.1819 37.3258 24.8481 37.1875 24.5 37.1875V39.8125ZM17.5 37.1875C17.1519 37.1875 16.8181 37.3258 16.5719 37.5719C16.3258 37.8181 16.1875 38.1519 16.1875 38.5C16.1875 38.8481 16.3258 39.1819 16.5719 39.4281C16.8181 39.6742 17.1519 39.8125 17.5 39.8125V37.1875ZM19.6875 35V38.5H22.3125V35H19.6875ZM24.5 37.1875H17.5V39.8125H24.5V37.1875Z" fill="#321698"/>
<path opacity="0.5" d="M15.75 12.25H26.25M15.75 28H26.25" stroke="#321698" stroke-width="2.5" stroke-linecap="round"/>
</svg>
