<svg width="42" height="42" viewBox="0 0 42 42" fill="none" xmlns="http://www.w3.org/2000/svg">
<path opacity="0.5" d="M17.1171 6.80784C18.1041 5.96784 18.5976 5.54784 19.1121 5.30109C19.7014 5.01931 20.3463 4.87305 20.9995 4.87305C21.6527 4.87305 22.2976 5.01931 22.8868 5.30109C23.4031 5.54609 23.8966 5.96609 24.8818 6.80784C25.2756 7.14384 25.4716 7.31009 25.6816 7.45009C26.1625 7.7724 26.7026 7.99605 27.2706 8.10809C27.5173 8.15709 27.7746 8.17809 28.2891 8.22009C29.5823 8.32159 30.2281 8.37409 30.7671 8.56484C31.3827 8.7821 31.942 9.13439 32.4037 9.59587C32.8655 10.0574 33.2182 10.6163 33.4358 11.2318C33.6266 11.7726 33.6773 12.4183 33.7806 13.7098C33.8208 14.2243 33.8418 14.4816 33.8908 14.7301C34.0028 15.2971 34.2268 15.8378 34.5488 16.3173C34.6888 16.5273 34.8568 16.7233 35.1911 17.1171C36.0311 18.1041 36.4528 18.5976 36.6996 19.1121C36.9814 19.7014 37.1276 20.3463 37.1276 20.9995C37.1276 21.6527 36.9814 22.2976 36.6996 22.8868C36.4546 23.4013 36.0328 23.8948 35.1911 24.8818C34.9616 25.1356 34.7471 25.4027 34.5488 25.6816C34.2268 26.162 34.0031 26.7015 33.8908 27.2688C33.8418 27.5173 33.8208 27.7746 33.7806 28.2891C33.6773 29.5806 33.6266 30.2281 33.4358 30.7671C33.2182 31.3826 32.8655 31.9416 32.4037 32.4031C31.942 32.8645 31.3827 33.2168 30.7671 33.4341C30.2281 33.6266 29.5823 33.6773 28.2891 33.7788C27.7746 33.8208 27.5191 33.8418 27.2706 33.8908C26.7026 34.0029 26.1625 34.2265 25.6816 34.5488C25.4033 34.7472 25.1368 34.9616 24.8836 35.1911C23.8966 36.0311 23.4031 36.4511 22.8886 36.6978C22.2993 36.9796 21.6544 37.1259 21.0012 37.1259C20.348 37.1259 19.7031 36.9796 19.1138 36.6978C18.5976 36.4528 18.1041 36.0328 17.1188 35.1911C16.865 34.9616 16.598 34.7471 16.3191 34.5488C15.8382 34.2265 15.2981 34.0029 14.7301 33.8908C14.3931 33.8336 14.053 33.7962 13.7116 33.7788C12.4183 33.6773 11.7726 33.6248 11.2336 33.4341C10.618 33.2168 10.0587 32.8645 9.59695 32.4031C9.13516 31.9416 8.78251 31.3826 8.56484 30.7671C8.37409 30.2281 8.32334 29.5806 8.22009 28.2891C8.20333 27.9471 8.16652 27.6065 8.10984 27.2688C7.99758 26.7015 7.77394 26.162 7.45184 25.6816C7.31184 25.4716 7.14384 25.2756 6.80959 24.8818C5.96959 23.8948 5.54784 23.4013 5.30109 22.8868C5.01931 22.2976 4.87305 21.6527 4.87305 20.9995C4.87305 20.3463 5.01931 19.7014 5.30109 19.1121C5.54784 18.5976 5.96784 18.1041 6.80959 17.1171C7.14384 16.7233 7.31184 16.5273 7.45184 16.3173C7.77394 15.837 7.99758 15.2975 8.10984 14.7301C8.15884 14.4816 8.17984 14.2243 8.22009 13.7098C8.32334 12.4183 8.37409 11.7726 8.56484 11.2318C8.78269 10.6162 9.13561 10.0571 9.59771 9.59557C10.0598 9.13407 10.6194 8.78188 11.2353 8.56484C11.7743 8.37409 12.4201 8.32159 13.7133 8.22009C14.2278 8.17809 14.4833 8.15709 14.7318 8.10809C15.2998 7.99605 15.8399 7.7724 16.3208 7.45009C16.5308 7.31009 16.7251 7.14384 17.1171 6.80784Z" stroke="#321698" stroke-width="2.5"/>
<path d="M14.875 21.875L18.375 25.375L27.125 16.625" stroke="#321698" stroke-width="2.5" stroke-linecap="round" stroke-linejoin="round"/>
</svg>
