<svg width="80" height="80" viewBox="0 0 80 80" fill="none" xmlns="http://www.w3.org/2000/svg">
<rect opacity="0.1" x="0.504883" y="0.919922" width="79" height="79" rx="15" fill="#321698"/>
<path d="M36.6202 26.044C37.8327 25.4685 39.1579 25.1699 40.5 25.1699C41.8421 25.1699 43.1673 25.4685 44.3798 26.044L56.089 31.5338C58.637 32.7273 58.637 36.8608 56.089 38.0543L44.3815 43.544C43.1689 44.1198 41.8433 44.4185 40.5009 44.4185C39.1585 44.4185 37.8329 44.1198 36.6202 43.544L24.911 38.0543C22.363 36.8608 22.363 32.7273 24.911 31.5338L36.6202 26.044Z" stroke="#321698" stroke-width="2.5"/>
<path opacity="0.5" d="M23 34.7949V44.4199M52.75 40.0449V49.0137C52.75 50.7777 51.8697 52.4297 50.3262 53.2837C47.7555 54.7099 43.643 56.6699 40.5 56.6699C37.357 56.6699 33.2445 54.7082 30.6738 53.2854C29.132 52.4297 28.25 50.7777 28.25 49.0154V40.0449" stroke="#321698" stroke-width="2.5" stroke-linecap="round"/>
</svg>
