<svg width="80" height="80" viewBox="0 0 80 80" fill="none" xmlns="http://www.w3.org/2000/svg">
<rect opacity="0.1" x="0.504883" y="0.419922" width="79" height="79" rx="15" fill="#321698"/>
<path d="M40.4256 29.7422L33.9786 33.3997C32.5244 34.2257 31.7964 34.6387 31.6074 35.3457C31.4184 36.0527 31.8419 36.7737 32.6889 38.2157L33.7301 39.9919C34.5561 41.3954 34.9674 42.0972 35.6604 42.2827C36.3534 42.4682 37.0604 42.0657 38.4779 41.2624L45.0141 37.5524M31.3484 35.9354L24.9924 39.5422C23.4926 40.3927 22.7436 40.8197 22.5476 41.5407C22.3516 42.2617 22.7839 42.9984 23.6484 44.4719C24.5129 45.9437 24.9451 46.6804 25.6801 46.8747C26.4151 47.0689 27.1641 46.6419 28.6621 45.7914L35.0199 42.1829M56.3524 27.9939L54.5166 24.8684C53.6521 23.3967 53.2199 22.6599 52.4866 22.4657C51.7516 22.2732 51.0026 22.6984 49.5029 23.5489L43.0576 27.2064C41.6016 28.0324 40.8754 28.4454 40.6864 29.1524C40.4956 29.8612 40.9191 30.5822 41.7661 32.0224L43.7261 35.3614C44.5504 36.7649 44.9634 37.4667 45.6564 37.6522C46.3494 37.8377 47.0564 37.4352 48.4721 36.6319L55.0084 32.9219C56.5081 32.0714 57.2571 31.6462 57.4531 30.9252C57.6491 30.2042 57.2169 29.4674 56.3524 27.9939Z" stroke="#321698" stroke-width="2.5" stroke-linejoin="round"/>
<path opacity="0.5" d="M47 57.4199L40 40.7949L33 57.4199" stroke="#321698" stroke-width="2.5" stroke-linecap="round" stroke-linejoin="round"/>
</svg>
