<svg width="42" height="42" viewBox="0 0 42 42" fill="none" xmlns="http://www.w3.org/2000/svg">
<path d="M38.5 21C38.5 30.6652 30.6652 38.5 21 38.5C11.3348 38.5 3.5 30.6652 3.5 21C3.5 11.3348 11.3348 3.5 21 3.5C30.6652 3.5 38.5 11.3348 38.5 21Z" stroke="#321698" stroke-width="2.5"/>
<path opacity="0.5" d="M33.25 33.25L30.625 30.625M33.25 8.75L30.625 11.375M8.75 33.25L11.375 30.625M8.75 8.75L11.375 11.375M3.5 21H7M35 21H38.5M21 7V3.5" stroke="#321698" stroke-width="2.5" stroke-linecap="round"/>
<path d="M17.7116 25.1369C17.2241 24.6493 16.8374 24.0705 16.5735 23.4335C16.3096 22.7965 16.1738 22.1138 16.1738 21.4243C16.1738 20.7348 16.3096 20.052 16.5735 19.415C16.8374 18.778 17.2241 18.1992 17.7116 17.7116C18.1992 17.2241 18.778 16.8374 19.415 16.5735C20.052 16.3096 20.7348 16.1738 21.4243 16.1738C22.1138 16.1738 22.7965 16.3096 23.4335 16.5735C24.0705 16.8374 24.6493 17.2241 25.1369 17.7116C25.9174 18.4921 26.4616 20.1109 26.8361 21.8171C27.3979 24.3704 27.6796 25.6461 26.6629 26.6646C25.6479 27.6796 24.3704 27.3996 21.8171 26.8361C20.1109 26.4616 18.4921 25.9174 17.7116 25.1369Z" stroke="#321698" stroke-width="2.5"/>
</svg>
